HIERARCHY
ROOT hip
{
  OFFSET 0 0 0
  CHANNELS 6 Xposition Yposition Zposition Zrotation Yrotation Xrotation
  JOINT abdomen
  {
    OFFSET 0 20.6881 -0.73152
    CHANNELS 3 Zrotation Xrotation Yrotation
    JOINT chest
    {
      OFFSET 0 11.7043 -0.48768
      CHANNELS 3 Zrotation Xrotation Yrotation
      JOINT neck
      {
        OFFSET 0 22.1894 -2.19456
        CHANNELS 3 Zrotation Xrotation Yrotation
        JOINT head
        {
          OFFSET -0.24384 7.07133 1.2192
          CHANNELS 3 Zrotation Xrotation Yrotation
          JOINT leftEye
          {
            OFFSET 4.14528 8.04674 8.04672
            CHANNELS 3 Zrotation Xrotation Yrotation
            End Site
            {
              OFFSET 1 0 0
            }
          }
          JOINT rightEye
          {
            OFFSET -3.6576 8.04674 8.04672
            CHANNELS 3 Zrotation Xrotation Yrotation
            End Site
            {
              OFFSET 1 0 0
            }
          }
        }
      }
      JOINT rCollar
      {
        OFFSET -2.68224 19.2634 -4.8768
        CHANNELS 3 Zrotation Xrotation Yrotation
        JOINT rShldr
        {
          OFFSET -8.77824 -1.95073 1.46304
          CHANNELS 3 Zrotation Xrotation Yrotation
          JOINT rForeArm
          {
            OFFSET -28.1742 -1.7115 0.48768
            CHANNELS 3 Zrotation Xrotation Yrotation
            JOINT rHand
            {
              OFFSET -22.5879 0.773209 7.07136
              CHANNELS 3 Zrotation Xrotation Yrotation
              JOINT rThumb1
              {
                OFFSET -1.2192 -0.487915 3.41376
                CHANNELS 3 Zrotation Xrotation Yrotation
                JOINT rThumb2
                {
                  OFFSET -3.37035 -0.52449 3.41376
                  CHANNELS 3 Zrotation Xrotation Yrotation
                  End Site
                  {
                    OFFSET -1.78271 -1.18214 1.43049
                  }
                }
              }
              JOINT rIndex1
              {
                OFFSET -7.75947 0.938293 5.60832
                CHANNELS 3 Zrotation Xrotation Yrotation
                JOINT rIndex2
                {
                  OFFSET -2.54057 -0.884171 1.56538
                  CHANNELS 3 Zrotation Xrotation Yrotation
                  End Site
                  {
                    OFFSET -1.62519 -0.234802 1.16502
                  }
                }
              }
              JOINT rMid1
              {
                OFFSET -8.24714 1.18213 3.41376
                CHANNELS 3 Zrotation Xrotation Yrotation
                JOINT rMid2
                {
                  OFFSET -3.10165 -0.590103 1.0647
                  CHANNELS 3 Zrotation Xrotation Yrotation
                  End Site
                  {
                    OFFSET -2.48547 -0.328903 0.83742
                  }
                }
              }
              JOINT rRing1
              {
                OFFSET -8.82822 0.546677 1.51678
                CHANNELS 3 Zrotation Xrotation Yrotation
                JOINT rRing2
                {
                  OFFSET -2.60934 -0.819778 -0.0198488
                  CHANNELS 3 Zrotation Xrotation Yrotation
                  End Site
                  {
                    OFFSET -2.33842 -0.294052 0.168128
                  }
                }
              }
              JOINT rPinky1
              {
                OFFSET -8.27202 -0.0477905 -0.4584
                CHANNELS 3 Zrotation Xrotation Yrotation
                JOINT rPinky2
                {
                  OFFSET -1.82734 -0.647385 -0.700984
                  CHANNELS 3 Zrotation Xrotation Yrotation
                  End Site
                  {
                    OFFSET -1.69225 -0.51767 -0.607171
                  }
                }
              }
            }
          }
        }
      }
      JOINT lCollar
      {
        OFFSET 2.68224 19.2634 -4.8768
        CHANNELS 3 Zrotation Xrotation Yrotation
        JOINT lShldr
        {
          OFFSET 8.77824 -1.95073 1.46304
          CHANNELS 3 Zrotation Xrotation Yrotation
          JOINT lForeArm
          {
            OFFSET 28.1742 -1.7115 0.48768
            CHANNELS 3 Zrotation Xrotation Yrotation
            JOINT lHand
            {
              OFFSET 22.5879 0.773209 7.07136
              CHANNELS 3 Zrotation Xrotation Yrotation
              JOINT lThumb1
              {
                OFFSET 1.2192 -0.487915 3.41376
                CHANNELS 3 Zrotation Xrotation Yrotation
                JOINT lThumb2
                {
                  OFFSET 3.37035 -0.52449 3.41376
                  CHANNELS 3 Zrotation Xrotation Yrotation
                  End Site
                  {
                    OFFSET 1.78271 -1.18214 1.43049
                  }
                }
              }
              JOINT lIndex1
              {
                OFFSET 7.75947 0.938293 5.60832
                CHANNELS 3 Zrotation Xrotation Yrotation
                JOINT lIndex2
                {
                  OFFSET 2.54057 -0.884171 1.56538
                  CHANNELS 3 Zrotation Xrotation Yrotation
                  End Site
                  {
                    OFFSET 1.62519 -0.234802 1.16502
                  }
                }
              }
              JOINT lMid1
              {
                OFFSET 8.24714 1.18213 3.41376
                CHANNELS 3 Zrotation Xrotation Yrotation
                JOINT lMid2
                {
                  OFFSET 3.10165 -0.590103 1.0647
                  CHANNELS 3 Zrotation Xrotation Yrotation
                  End Site
                  {
                    OFFSET 2.48547 -0.328903 0.83742
                  }
                }
              }
              JOINT lRing1
              {
                OFFSET 8.82822 0.546677 1.51678
                CHANNELS 3 Zrotation Xrotation Yrotation
                JOINT lRing2
                {
                  OFFSET 2.60934 -0.819778 -0.0198488
                  CHANNELS 3 Zrotation Xrotation Yrotation
                  End Site
                  {
                    OFFSET 2.33842 -0.294052 0.168128
                  }
                }
              }
              JOINT lPinky1
              {
                OFFSET 8.27202 -0.0477905 -0.4584
                CHANNELS 3 Zrotation Xrotation Yrotation
                JOINT lPinky2
                {
                  OFFSET 1.82734 -0.647385 -0.700984
                  CHANNELS 3 Zrotation Xrotation Yrotation
                  End Site
                  {
                    OFFSET 1.69225 -0.51767 -0.607171
                  }
                }
              }
            }
          }
        }
      }
    }
  }
  JOINT rButtock
  {
    OFFSET -8.77824 4.35084 1.2192
    CHANNELS 3 Zrotation Xrotation Yrotation
    JOINT rThigh
    {
      OFFSET 0 -1.70687 -2.19456
      CHANNELS 3 Zrotation Xrotation Yrotation
      JOINT rShin
      {
        OFFSET 0 -36.8199 0.73152
        CHANNELS 3 Zrotation Xrotation Yrotation
        JOINT rFoot
        {
          OFFSET 0.73152 -45.1104 -5.12064
          CHANNELS 3 Zrotation Xrotation Yrotation
          End Site
          {
            OFFSET -1.1221 -3.69964 12.103
          }
        }
      }
    }
  }
  JOINT lButtock
  {
    OFFSET 8.77824 4.35084 1.2192
    CHANNELS 3 Zrotation Xrotation Yrotation
    JOINT lThigh
    {
      OFFSET 0 -1.70687 -2.19456
      CHANNELS 3 Zrotation Xrotation Yrotation
      JOINT lShin
      {
        OFFSET 0 -36.8199 0.73152
        CHANNELS 3 Zrotation Xrotation Yrotation
        JOINT lFoot
        {
          OFFSET -0.73152 -45.1104 -5.12064
          CHANNELS 3 Zrotation Xrotation Yrotation
          End Site
          {
            OFFSET 1.1221 -3.69964 12.103
          }
        }
      }
    }
  }
}
MOTION
Frames:	4
Frame Time:	0.00833333
-4.21214 82.5113 45.2475 -7.4835 -4.4352 5.5384 1.23209 -5.57862 3.97496 -3.76628 -8.74956 0.519741 4.57485 3.93332 1.41928 -1.14222 16.9612 2.05204 -0.0 0.0 0.0 -0.0 0.0 0.0 -1.35584e-13 8.95397e-14 -2.01698e-13 -17.2662 50.3971 82.402 -28.2788 -38.5406 81.3458 -2.82838 42.2018 7.32164 1.73019e-09 9.18566e-10 -2.6947e-10 2.97624e-09 1.55564e-09 -5.18059e-10 1.7302e-09 9.18565e-10 -2.69467e-10 7.73091 5.47488 0.417314 1.73019e-09 9.18562e-10 -2.69466e-10 2.90554 0.965183 0.102902 1.73019e-09 9.18562e-10 -2.69466e-10 10.2786 0.731801 0.0259123 1.73018e-09 9.18567e-10 -2.6946e-10 2.22167 -0.733487 -0.20892 -1.35703e-13 8.95399e-14 -2.01914e-13 -75.6642 62.42 2.73111 27.926 -40.7895 -85.347 0.223319 -13.3289 1.90823 -2.56995e-10 -2.00134e-09 -1.04791e-09 -4.35061e-10 -3.48969e-09 -1.81261e-09 -2.56999e-10 -2.00133e-09 -1.0479e-09 -7.73091 5.47488 -0.417314 -2.56992e-10 -2.00132e-09 -1.04791e-09 -2.90554 0.965183 -0.102902 -2.57e-10 -2.00134e-09 -1.04791e-09 -10.2786 0.731801 -0.0259123 -2.56986e-10 -2.00133e-09 -1.04792e-09 -2.22167 -0.733487 0.20892 -2.03217e-16 0.0 -3.88251e-19 2.61914 -2.07912 22.9299 0.0444225 -0.826211 0.347123 -3.81052 -4.71081 -18.9297 2.03217e-16 0.0 3.88251e-19 -3.42809 -1.90411 -42.2849 0.0432279 12.9871 0.226659 20.889 -17.9841 58.4493
-4.21148 82.5166 45.2504 -7.5174 -4.3743 5.5281 1.1995 -5.52991 3.96198 -3.77785 -8.74246 0.515982 4.56622 3.87913 1.46867 -1.0035 17.0795 2.13149 -0.0 0.0 0.0 -0.0 0.0 0.0 -1.61864e-13 1.47897e-13 -2.48183e-13 -17.3864 50.6967 82.7261 -28.2774 -38.5564 81.3719 -2.7339 41.6476 7.17999 2.04366e-09 1.10879e-09 -2.57444e-10 3.51699e-09 1.879e-09 -5.08051e-10 2.04367e-09 1.10879e-09 -2.5744e-10 7.73091 5.47488 0.417314 2.04366e-09 1.10879e-09 -2.5744e-10 2.90554 0.965183 0.102902 2.04366e-09 1.10879e-09 -2.5744e-10 10.2786 0.731801 0.0259123 2.04366e-09 1.10879e-09 -2.57434e-10 2.22167 -0.733487 -0.20892 -1.61967e-13 1.47895e-13 -2.48381e-13 -75.5972 62.4417 2.68505 27.9467 -40.6866 -85.1611 0.209535 -12.9298 1.84897 -1.85948e-10 -3.71216e-09 -1.68256e-09 -3.04692e-10 -6.46442e-09 -2.90817e-09 -1.85948e-10 -3.71216e-09 -1.68255e-09 -7.73091 5.47488 -0.417314 -1.85945e-10 -3.71214e-09 -1.68255e-09 -2.90554 0.965183 -0.102902 -1.85953e-10 -3.71216e-09 -1.68256e-09 -10.2786 0.731801 -0.0259123 -1.85938e-10 -3.71215e-09 -1.68256e-09 -2.22167 -0.733487 0.20892 -2.03217e-16 0.0 -3.88251e-19 2.60806 -2.07614 22.8995 0.0443991 -0.824031 0.34608 -3.82348 -4.72335 -18.9795 2.03217e-16 0.0 3.88251e-19 -3.43239 -1.90954 -42.3295 0.0431504 12.9763 0.22401 20.8149 -17.9459 58.4069
-4.21064 82.5211 45.2506 -7.5414 -4.327 5.5319 1.17161 -5.4855 3.95161 -3.76361 -8.70394 0.516528 4.61477 3.85636 1.52614 -1.02659 17.064 2.2383 -0.0 0.0 0.0 -0.0 0.0 0.0 -1.21864e-13 1.36853e-13 -2.25001e-13 -17.4759 50.9809 83.0203 -28.2748 -38.5801 81.4132 -2.72314 41.5065 7.15203 1.74088e-09 9.46163e-10 -2.38188e-10 2.99573e-09 1.60328e-09 -4.65951e-10 1.74089e-09 9.46162e-10 -2.38187e-10 7.73091 5.47488 0.417314 1.74088e-09 9.46158e-10 -2.38186e-10 2.90554 0.965183 0.102902 1.74088e-09 9.46157e-10 -2.38184e-10 10.2786 0.731801 0.0259123 1.74087e-09 9.46162e-10 -2.38178e-10 2.22167 -0.733487 -0.20892 -1.21912e-13 1.36848e-13 -2.25171e-13 -75.5645 62.4365 2.68596 27.9646 -40.5969 -84.9982 0.191717 -12.3995 1.77051 -1.08064e-10 -3.03112e-09 -1.33256e-09 -1.72392e-10 -5.27868e-09 -2.3026e-09 -1.08065e-10 -3.03112e-09 -1.33255e-09 -7.73091 5.47488 -0.417314 -1.08061e-10 -3.0311e-09 -1.33256e-09 -2.90554 0.965183 -0.102902 -1.08069e-10 -3.03112e-09 -1.33256e-09 -10.2786 0.731801 -0.0259123 -1.08053e-10 -3.03112e-09 -1.33257e-09 -2.22167 -0.733487 0.20892 -2.03217e-16 0.0 -3.88251e-19 2.60852 -2.08118 22.8687 0.0444623 -0.820189 0.344044 -3.82927 -4.73329 -19.0004 2.03217e-16 0.0 3.88251e-19 -3.42195 -1.92618 -42.328 0.0431697 12.9692 0.221323 20.7536 -17.9258 58.3492
-4.2023 82.5232 45.2502 -7.5238 -4.2783 5.5371 1.14281 -5.44257 3.94091 -3.72882 -8.64437 0.51955 4.70184 3.85049 1.58906 -1.16519 16.97 2.36418 -0.0 0.0 0.0 -0.0 0.0 0.0 -4.12066e-14 8.61779e-14 -1.59298e-13 -17.531 51.2664 83.2722 -28.2701 -38.6207 81.4844 -2.76793 41.6511 7.20081 1.05354e-09 5.65095e-10 -2.09074e-10 1.8119e-09 9.5676e-10 -3.9476e-10 1.05356e-09 5.65094e-10 -2.09076e-10 7.73091 5.47488 0.417314 1.05354e-09 5.65088e-10 -2.09074e-10 2.90554 0.965183 0.102902 1.05355e-09 5.65088e-10 -2.09071e-10 10.2786 0.731801 0.0259123 1.05354e-09 5.6509e-10 -2.09062e-10 2.22167 -0.733487 -0.20892 -4.11736e-14 8.61686e-14 -1.59432e-13 -75.5688 62.4102 2.7386 27.9815 -40.5113 -84.8425 0.172173 -11.7765 1.67882 -1.56787e-11 -9.46179e-10 -3.94782e-10 -2.07741e-11 -1.65069e-09 -6.81416e-10 -1.56842e-11 -9.46169e-10 -3.94775e-10 -7.73091 5.47488 -0.417314 -1.56774e-11 -9.46158e-10 -3.94781e-10 -2.90554 0.965183 -0.102902 -1.56848e-11 -9.4618e-10 -3.94786e-10 -10.2786 0.731801 -0.0259123 -1.56687e-11 -9.46174e-10 -3.94792e-10 -2.22167 -0.733487 0.20892 -2.03217e-16 0.0 -3.88251e-19 2.61312 -2.09091 22.836 0.0446082 -0.8148 0.341373 -3.82959 -4.74187 -18.9975 2.03217e-16 0.0 3.88251e-19 -3.4053 -1.9492 -42.2939 0.0432908 12.9656 0.218619 20.7025 -17.9186 58.2822
